<?xml version="1.0" encoding="UTF-8" standalone="no"?>
<!DOCTYPE svg PUBLIC "-//W3C//DTD SVG 1.1//EN"
 "http://www.w3.org/Graphics/SVG/1.1/DTD/svg11.dtd">
<!-- Generated by graphviz version 2.43.0 (0)
 -->
<!-- Title: dependency&#45;cruiser output Pages: 1 -->
<svg width="817pt" height="350pt"
 viewBox="0.00 0.00 817.00 350.00" xmlns="http://www.w3.org/2000/svg" xmlns:xlink="http://www.w3.org/1999/xlink">
<g id="graph0" class="graph" transform="scale(1 1) rotate(0) translate(4 346)">
<title>dependency&#45;cruiser output</title>
<polygon fill="white" stroke="transparent" points="-4,4 -4,-346 813,-346 813,4 -4,4"/>
<g id="clust1" class="cluster">
<title>cluster_src</title>
<path fill="#ffffff" stroke="black" stroke-width="2" d="M20,-8C20,-8 789,-8 789,-8 795,-8 801,-14 801,-20 801,-20 801,-322 801,-322 801,-328 795,-334 789,-334 789,-334 20,-334 20,-334 14,-334 8,-328 8,-322 8,-322 8,-20 8,-20 8,-14 14,-8 20,-8"/>
<text text-anchor="middle" x="404.5" y="-322.8" font-family="Helvetica,sans-Serif" font-weight="bold" font-size="9.00">src</text>
</g>
<g id="clust2" class="cluster">
<title>cluster_src/components</title>
<path fill="#ffffff" stroke="black" stroke-width="2" d="M207,-94C207,-94 415,-94 415,-94 421,-94 427,-100 427,-106 427,-106 427,-224 427,-224 427,-230 421,-236 415,-236 415,-236 207,-236 207,-236 201,-236 195,-230 195,-224 195,-224 195,-106 195,-106 195,-100 201,-94 207,-94"/>
<text text-anchor="middle" x="311" y="-224.8" font-family="Helvetica,sans-Serif" font-weight="bold" font-size="9.00">components</text>
</g>
<g id="clust3" class="cluster">
<title>cluster_src/icons</title>
<path fill="#ffffff" stroke="black" stroke-width="2" d="M447,-62C447,-62 543,-62 543,-62 549,-62 555,-68 555,-74 555,-74 555,-162 555,-162 555,-168 549,-174 543,-174 543,-174 447,-174 447,-174 441,-174 435,-168 435,-162 435,-162 435,-74 435,-74 435,-68 441,-62 447,-62"/>
<text text-anchor="middle" x="495" y="-162.8" font-family="Helvetica,sans-Serif" font-weight="bold" font-size="9.00">icons</text>
</g>
<g id="clust4" class="cluster">
<title>cluster_src/store</title>
<path fill="#ffffff" stroke="black" stroke-width="2" d="M457,-182C457,-182 781,-182 781,-182 787,-182 793,-188 793,-194 793,-194 793,-296 793,-296 793,-302 787,-308 781,-308 781,-308 457,-308 457,-308 451,-308 445,-302 445,-296 445,-296 445,-194 445,-194 445,-188 451,-182 457,-182"/>
<text text-anchor="middle" x="619" y="-296.8" font-family="Helvetica,sans-Serif" font-weight="bold" font-size="9.00">store</text>
</g>
<g id="clust5" class="cluster">
<title>cluster_src/store/books</title>
<path fill="#ffffff" stroke="black" stroke-width="2" d="M465,-190C465,-190 773,-190 773,-190 779,-190 785,-196 785,-202 785,-202 785,-244 785,-244 785,-250 779,-256 773,-256 773,-256 465,-256 465,-256 459,-256 453,-250 453,-244 453,-244 453,-202 453,-202 453,-196 459,-190 465,-190"/>
<text text-anchor="middle" x="619" y="-244.8" font-family="Helvetica,sans-Serif" font-weight="bold" font-size="9.00">books</text>
</g>
<!-- src/App.css -->
<g id="node1" class="node">
<title>src/App.css</title>
<g id="a_node1"><a xlink:href="src/App.css" xlink:title="App.css">
<path fill="#ffffcc" stroke="black" d="M272.5,-294C272.5,-294 230.5,-294 230.5,-294 227.5,-294 224.5,-291 224.5,-288 224.5,-288 224.5,-282 224.5,-282 224.5,-279 227.5,-276 230.5,-276 230.5,-276 272.5,-276 272.5,-276 275.5,-276 278.5,-279 278.5,-282 278.5,-282 278.5,-288 278.5,-288 278.5,-291 275.5,-294 272.5,-294"/>
<text text-anchor="start" x="233.5" y="-282.8" font-family="Helvetica,sans-Serif" font-size="9.00">App.css</text>
</a>
</g>
</g>
<!-- src/App.tsx -->
<g id="node2" class="node">
<title>src/App.tsx</title>
<g id="a_node2"><a xlink:href="src/App.tsx" xlink:title="App.tsx">
<path fill="#bbfeff" stroke="black" d="M178.5,-258C178.5,-258 136.5,-258 136.5,-258 133.5,-258 130.5,-255 130.5,-252 130.5,-252 130.5,-246 130.5,-246 130.5,-243 133.5,-240 136.5,-240 136.5,-240 178.5,-240 178.5,-240 181.5,-240 184.5,-243 184.5,-246 184.5,-246 184.5,-252 184.5,-252 184.5,-255 181.5,-258 178.5,-258"/>
<text text-anchor="start" x="140" y="-246.8" font-family="Helvetica,sans-Serif" font-size="9.00">App.tsx</text>
</a>
</g>
</g>
<!-- src/App.tsx&#45;&gt;src/App.css -->
<g id="edge1" class="edge">
<title>src/App.tsx&#45;&gt;src/App.css</title>
<path fill="none" stroke="#000000" stroke-width="2" stroke-opacity="0.200000" d="M175.72,-258.13C181.73,-261.15 188.59,-264.39 195,-267 202.48,-270.04 210.68,-272.93 218.43,-275.47"/>
<polygon fill="#000000" fill-opacity="0.200000" stroke="#000000" stroke-width="2" stroke-opacity="0.200000" points="217.89,-277.5 224.24,-277.34 219.18,-273.5 217.89,-277.5"/>
</g>
<!-- src/components/BookList.tsx -->
<g id="node3" class="node">
<title>src/components/BookList.tsx</title>
<g id="a_node3"><a xlink:href="src/components/BookList.tsx" xlink:title="BookList.tsx">
<path fill="#bbfeff" stroke="black" d="M281,-150C281,-150 222,-150 222,-150 219,-150 216,-147 216,-144 216,-144 216,-138 216,-138 216,-135 219,-132 222,-132 222,-132 281,-132 281,-132 284,-132 287,-135 287,-138 287,-138 287,-144 287,-144 287,-147 284,-150 281,-150"/>
<text text-anchor="start" x="224" y="-138.8" font-family="Helvetica,sans-Serif" font-size="9.00">BookList.tsx</text>
</a>
</g>
</g>
<!-- src/App.tsx&#45;&gt;src/components/BookList.tsx -->
<g id="edge2" class="edge">
<title>src/App.tsx&#45;&gt;src/components/BookList.tsx</title>
<path fill="none" stroke="#000000" stroke-width="2" stroke-opacity="0.200000" d="M162.53,-239.78C168.44,-226.88 180.38,-203.1 195,-186 205.62,-173.57 220.02,-162.01 231.49,-153.72"/>
<polygon fill="#000000" fill-opacity="0.200000" stroke="#000000" stroke-width="2" stroke-opacity="0.200000" points="232.85,-155.33 236.53,-150.15 230.42,-151.91 232.85,-155.33"/>
</g>
<!-- src/components/BookPage.tsx -->
<g id="node4" class="node">
<title>src/components/BookPage.tsx</title>
<g id="a_node4"><a xlink:href="src/components/BookPage.tsx" xlink:title="BookPage.tsx">
<path fill="#bbfeff" stroke="black" d="M284,-120C284,-120 219,-120 219,-120 216,-120 213,-117 213,-114 213,-114 213,-108 213,-108 213,-105 216,-102 219,-102 219,-102 284,-102 284,-102 287,-102 290,-105 290,-108 290,-108 290,-114 290,-114 290,-117 287,-120 284,-120"/>
<text text-anchor="start" x="221" y="-108.8" font-family="Helvetica,sans-Serif" font-size="9.00">BookPage.tsx</text>
</a>
</g>
</g>
<!-- src/App.tsx&#45;&gt;src/components/BookPage.tsx -->
<g id="edge3" class="edge">
<title>src/App.tsx&#45;&gt;src/components/BookPage.tsx</title>
<path fill="none" stroke="#000000" stroke-width="2" stroke-opacity="0.200000" d="M158.38,-239.76C158.61,-217 162.48,-157.73 195,-126 198.47,-122.62 202.61,-119.98 207.05,-117.92"/>
<polygon fill="#000000" fill-opacity="0.200000" stroke="#000000" stroke-width="2" stroke-opacity="0.200000" points="208.02,-119.8 212.81,-115.62 206.46,-115.9 208.02,-119.8"/>
</g>
<!-- src/components/HeaderSearch.tsx -->
<g id="node5" class="node">
<title>src/components/HeaderSearch.tsx</title>
<g id="a_node5"><a xlink:href="src/components/HeaderSearch.tsx" xlink:title="HeaderSearch.tsx">
<path fill="#bbfeff" stroke="black" d="M294,-210C294,-210 209,-210 209,-210 206,-210 203,-207 203,-204 203,-204 203,-198 203,-198 203,-195 206,-192 209,-192 209,-192 294,-192 294,-192 297,-192 300,-195 300,-198 300,-198 300,-204 300,-204 300,-207 297,-210 294,-210"/>
<text text-anchor="start" x="211" y="-198.8" font-family="Helvetica,sans-Serif" font-size="9.00">HeaderSearch.tsx</text>
</a>
</g>
</g>
<!-- src/App.tsx&#45;&gt;src/components/HeaderSearch.tsx -->
<g id="edge4" class="edge">
<title>src/App.tsx&#45;&gt;src/components/HeaderSearch.tsx</title>
<path fill="none" stroke="#000000" stroke-width="2" stroke-opacity="0.200000" d="M165.61,-239.83C172.32,-231.81 183.12,-220.45 195,-214 195.93,-213.5 196.87,-213.01 197.83,-212.55"/>
<polygon fill="#000000" fill-opacity="0.200000" stroke="#000000" stroke-width="2" stroke-opacity="0.200000" points="198.83,-214.4 203.49,-210.08 197.15,-210.55 198.83,-214.4"/>
</g>
<!-- src/store/books/booksAPI.ts -->
<g id="node6" class="node">
<title>src/store/books/booksAPI.ts</title>
<g id="a_node6"><a xlink:href="src/store/books/booksAPI.ts" xlink:title="booksAPI.ts">
<path fill="#ddfeff" stroke="black" d="M523,-230C523,-230 467,-230 467,-230 464,-230 461,-227 461,-224 461,-224 461,-218 461,-218 461,-215 464,-212 467,-212 467,-212 523,-212 523,-212 526,-212 529,-215 529,-218 529,-218 529,-224 529,-224 529,-227 526,-230 523,-230"/>
<text text-anchor="start" x="469" y="-218.8" font-family="Helvetica,sans-Serif" font-size="9.00">booksAPI.ts</text>
</a>
</g>
</g>
<!-- src/App.tsx&#45;&gt;src/store/books/booksAPI.ts -->
<g id="edge5" class="edge">
<title>src/App.tsx&#45;&gt;src/store/books/booksAPI.ts</title>
<path fill="none" stroke="#000000" stroke-width="2" stroke-opacity="0.200000" d="M184.58,-249.73C242.92,-251.09 382.3,-252.73 427,-239 431.01,-237.77 431.12,-235.59 435,-234 441.24,-231.45 448.08,-229.36 454.8,-227.66"/>
<polygon fill="#000000" fill-opacity="0.200000" stroke="#000000" stroke-width="2" stroke-opacity="0.200000" points="455.58,-229.64 460.93,-226.21 454.61,-225.55 455.58,-229.64"/>
</g>
<!-- src/store/hooks.ts -->
<g id="node7" class="node">
<title>src/store/hooks.ts</title>
<g id="a_node7"><a xlink:href="src/store/hooks.ts" xlink:title="hooks.ts">
<path fill="#ddfeff" stroke="black" d="M516,-282C516,-282 474,-282 474,-282 471,-282 468,-279 468,-276 468,-276 468,-270 468,-270 468,-267 471,-264 474,-264 474,-264 516,-264 516,-264 519,-264 522,-267 522,-270 522,-270 522,-276 522,-276 522,-279 519,-282 516,-282"/>
<text text-anchor="start" x="476" y="-270.8" font-family="Helvetica,sans-Serif" font-size="9.00">hooks.ts</text>
</a>
</g>
</g>
<!-- src/App.tsx&#45;&gt;src/store/hooks.ts -->
<g id="edge6" class="edge">
<title>src/App.tsx&#45;&gt;src/store/hooks.ts</title>
<path fill="none" stroke="#000000" stroke-width="2" stroke-opacity="0.200000" d="M184.6,-251.98C222.65,-256.45 289.91,-264.92 300,-270 307.3,-273.67 305.45,-279.87 313,-283 359.81,-302.39 376.47,-286.75 427,-283 438.38,-282.16 450.76,-280.51 461.74,-278.8"/>
<polygon fill="#000000" fill-opacity="0.200000" stroke="#000000" stroke-width="2" stroke-opacity="0.200000" points="462.1,-280.87 467.69,-277.85 461.43,-276.73 462.1,-280.87"/>
</g>
<!-- src/components/BookList.tsx&#45;&gt;src/store/hooks.ts -->
<g id="edge10" class="edge">
<title>src/components/BookList.tsx&#45;&gt;src/store/hooks.ts</title>
<path fill="none" stroke="#000000" stroke-width="2" stroke-opacity="0.200000" d="M265.08,-150.02C275.76,-158.27 290.78,-171.4 300,-186 309.98,-201.8 298.68,-213.99 313,-226 352.2,-258.88 385.82,-211.64 427,-242 433.72,-246.95 428.52,-253.74 435,-259 442.58,-265.15 452.4,-268.68 461.85,-270.69"/>
<polygon fill="#000000" fill-opacity="0.200000" stroke="#000000" stroke-width="2" stroke-opacity="0.200000" points="461.71,-272.79 467.98,-271.79 462.45,-268.66 461.71,-272.79"/>
</g>
<!-- src/components/BookCard.tsx -->
<g id="node8" class="node">
<title>src/components/BookCard.tsx</title>
<g id="a_node8"><a xlink:href="src/components/BookCard.tsx" xlink:title="BookCard.tsx">
<path fill="#bbfeff" stroke="black" d="M398,-120C398,-120 334,-120 334,-120 331,-120 328,-117 328,-114 328,-114 328,-108 328,-108 328,-105 331,-102 334,-102 334,-102 398,-102 398,-102 401,-102 404,-105 404,-108 404,-108 404,-114 404,-114 404,-117 401,-120 398,-120"/>
<text text-anchor="start" x="336" y="-108.8" font-family="Helvetica,sans-Serif" font-size="9.00">BookCard.tsx</text>
</a>
</g>
</g>
<!-- src/components/BookList.tsx&#45;&gt;src/components/BookCard.tsx -->
<g id="edge12" class="edge">
<title>src/components/BookList.tsx&#45;&gt;src/components/BookCard.tsx</title>
<path fill="none" stroke="#000000" stroke-width="2" stroke-opacity="0.200000" d="M286.25,-132C298.38,-128.77 312.17,-125.09 324.79,-121.72"/>
<polygon fill="#000000" fill-opacity="0.200000" stroke="#000000" stroke-width="2" stroke-opacity="0.200000" points="325.62,-123.67 330.88,-120.1 324.54,-119.62 325.62,-123.67"/>
</g>
<!-- src/icons/LoaderIcon.tsx -->
<g id="node11" class="node">
<title>src/icons/LoaderIcon.tsx</title>
<g id="a_node11"><a xlink:href="src/icons/LoaderIcon.tsx" xlink:title="LoaderIcon.tsx">
<path fill="#bbfeff" stroke="black" d="M530.5,-88C530.5,-88 459.5,-88 459.5,-88 456.5,-88 453.5,-85 453.5,-82 453.5,-82 453.5,-76 453.5,-76 453.5,-73 456.5,-70 459.5,-70 459.5,-70 530.5,-70 530.5,-70 533.5,-70 536.5,-73 536.5,-76 536.5,-76 536.5,-82 536.5,-82 536.5,-85 533.5,-88 530.5,-88"/>
<text text-anchor="start" x="461.5" y="-76.8" font-family="Helvetica,sans-Serif" font-size="9.00">LoaderIcon.tsx</text>
</a>
</g>
</g>
<!-- src/components/BookList.tsx&#45;&gt;src/icons/LoaderIcon.tsx -->
<g id="edge9" class="edge">
<title>src/components/BookList.tsx&#45;&gt;src/icons/LoaderIcon.tsx</title>
<path fill="none" stroke="#000000" stroke-width="2" stroke-opacity="0.200000" d="M287.11,-133.99C291.8,-131.97 296.28,-129.36 300,-126 310.79,-116.27 301.24,-104.53 313,-96 315.71,-94.03 394.27,-87.21 447,-82.83"/>
<polygon fill="#000000" fill-opacity="0.200000" stroke="#000000" stroke-width="2" stroke-opacity="0.200000" points="447.48,-84.9 453.29,-82.31 447.14,-80.71 447.48,-84.9"/>
</g>
<!-- src/utils.ts -->
<g id="node12" class="node">
<title>src/utils.ts</title>
<g id="a_node12"><a xlink:href="src/utils.ts" xlink:title="utils.ts">
<path fill="#ddfeff" stroke="black" d="M387,-76C387,-76 345,-76 345,-76 342,-76 339,-73 339,-70 339,-70 339,-64 339,-64 339,-61 342,-58 345,-58 345,-58 387,-58 387,-58 390,-58 393,-61 393,-64 393,-64 393,-70 393,-70 393,-73 390,-76 387,-76"/>
<text text-anchor="start" x="350.5" y="-64.8" font-family="Helvetica,sans-Serif" font-size="9.00">utils.ts</text>
</a>
</g>
</g>
<!-- src/components/BookList.tsx&#45;&gt;src/utils.ts -->
<g id="edge11" class="edge">
<title>src/components/BookList.tsx&#45;&gt;src/utils.ts</title>
<path fill="none" stroke="#000000" stroke-width="2" stroke-opacity="0.200000" d="M287.42,-134.32C292.07,-132.25 296.45,-129.54 300,-126 313.53,-112.49 299.66,-98.69 313,-85 318.36,-79.49 325.49,-75.67 332.75,-73.02"/>
<polygon fill="#000000" fill-opacity="0.200000" stroke="#000000" stroke-width="2" stroke-opacity="0.200000" points="333.77,-74.89 338.84,-71.05 332.48,-70.9 333.77,-74.89"/>
</g>
<!-- src/components/GetBooksButton.tsx -->
<g id="node13" class="node">
<title>src/components/GetBooksButton.tsx</title>
<g id="a_node13"><a xlink:href="src/components/GetBooksButton.tsx" xlink:title="GetBooksButton.tsx">
<path fill="#bbfeff" stroke="black" d="M413,-150C413,-150 319,-150 319,-150 316,-150 313,-147 313,-144 313,-144 313,-138 313,-138 313,-135 316,-132 319,-132 319,-132 413,-132 413,-132 416,-132 419,-135 419,-138 419,-138 419,-144 419,-144 419,-147 416,-150 413,-150"/>
<text text-anchor="start" x="321" y="-138.8" font-family="Helvetica,sans-Serif" font-size="9.00">GetBooksButton.tsx</text>
</a>
</g>
</g>
<!-- src/components/BookList.tsx&#45;&gt;src/components/GetBooksButton.tsx -->
<g id="edge13" class="edge">
<title>src/components/BookList.tsx&#45;&gt;src/components/GetBooksButton.tsx</title>
<path fill="none" stroke="#000000" stroke-width="2" stroke-opacity="0.200000" d="M287.17,-141C293.4,-141 300.04,-141 306.73,-141"/>
<polygon fill="#000000" fill-opacity="0.200000" stroke="#000000" stroke-width="2" stroke-opacity="0.200000" points="306.86,-143.1 312.86,-141 306.86,-138.9 306.86,-143.1"/>
</g>
<!-- src/components/BookPage.tsx&#45;&gt;src/store/books/booksAPI.ts -->
<g id="edge16" class="edge">
<title>src/components/BookPage.tsx&#45;&gt;src/store/books/booksAPI.ts</title>
<path fill="none" stroke="#000000" stroke-width="2" stroke-opacity="0.200000" d="M290.29,-118.35C293.96,-120.33 297.31,-122.84 300,-126 326.17,-156.8 282.82,-189.12 313,-216 333.17,-233.96 407.77,-230.06 454.67,-225.56"/>
<polygon fill="#000000" fill-opacity="0.200000" stroke="#000000" stroke-width="2" stroke-opacity="0.200000" points="455.05,-227.63 460.82,-224.95 454.64,-223.46 455.05,-227.63"/>
</g>
<!-- src/icons/PictureSkeleton.tsx -->
<g id="node9" class="node">
<title>src/icons/PictureSkeleton.tsx</title>
<g id="a_node9"><a xlink:href="src/icons/PictureSkeleton.tsx" xlink:title="PictureSkeleton.tsx">
<path fill="#bbfeff" stroke="black" d="M541,-118C541,-118 449,-118 449,-118 446,-118 443,-115 443,-112 443,-112 443,-106 443,-106 443,-103 446,-100 449,-100 449,-100 541,-100 541,-100 544,-100 547,-103 547,-106 547,-106 547,-112 547,-112 547,-115 544,-118 541,-118"/>
<text text-anchor="start" x="451" y="-106.8" font-family="Helvetica,sans-Serif" font-size="9.00">PictureSkeleton.tsx</text>
</a>
</g>
</g>
<!-- src/components/BookPage.tsx&#45;&gt;src/icons/PictureSkeleton.tsx -->
<g id="edge15" class="edge">
<title>src/components/BookPage.tsx&#45;&gt;src/icons/PictureSkeleton.tsx</title>
<path fill="none" stroke="#000000" stroke-width="2" stroke-opacity="0.200000" d="M258.15,-101.74C267.5,-87.45 287.67,-60.55 313,-50 336.38,-40.26 407.55,-33.77 427,-50 442.26,-62.74 421.44,-79.47 435,-94 435.87,-94.93 436.78,-95.8 437.73,-96.62"/>
<polygon fill="#000000" fill-opacity="0.200000" stroke="#000000" stroke-width="2" stroke-opacity="0.200000" points="436.75,-98.5 442.84,-100.32 439.21,-95.1 436.75,-98.5"/>
</g>
<!-- src/store/books/booksApiSchemas.ts -->
<g id="node10" class="node">
<title>src/store/books/booksApiSchemas.ts</title>
<g id="a_node10"><a xlink:href="src/store/books/booksApiSchemas.ts" xlink:title="booksApiSchemas.ts">
<path fill="#ddfeff" stroke="black" d="M771,-216C771,-216 673,-216 673,-216 670,-216 667,-213 667,-210 667,-210 667,-204 667,-204 667,-201 670,-198 673,-198 673,-198 771,-198 771,-198 774,-198 777,-201 777,-204 777,-204 777,-210 777,-210 777,-213 774,-216 771,-216"/>
<text text-anchor="start" x="675" y="-204.8" font-family="Helvetica,sans-Serif" font-size="9.00">booksApiSchemas.ts</text>
</a>
</g>
</g>
<!-- src/components/BookPage.tsx&#45;&gt;src/store/books/booksApiSchemas.ts -->
<g id="edge17" class="edge">
<title>src/components/BookPage.tsx&#45;&gt;src/store/books/booksApiSchemas.ts</title>
<path fill="none" stroke="#000000" stroke-width="2" stroke-opacity="0.200000" d="M255.48,-101.74C262.18,-82.64 280.47,-39.22 313,-22 357.78,1.71 376.83,-14.89 427,-22 485.63,-30.3 503.17,-30.36 555,-59 621.77,-95.89 684.35,-163.99 709.44,-193.16"/>
<polygon fill="#000000" fill-opacity="0.200000" stroke="#000000" stroke-width="2" stroke-opacity="0.200000" points="707.92,-194.61 713.41,-197.81 711.12,-191.88 707.92,-194.61"/>
</g>
<!-- src/components/BookPage.tsx&#45;&gt;src/icons/LoaderIcon.tsx -->
<g id="edge14" class="edge">
<title>src/components/BookPage.tsx&#45;&gt;src/icons/LoaderIcon.tsx</title>
<path fill="none" stroke="#000000" stroke-width="2" stroke-opacity="0.200000" d="M256.72,-101.86C264.87,-85.43 284.55,-51.37 313,-38 358.85,-16.45 378.23,-24.26 427,-38 446.47,-43.48 465.87,-56.37 478.74,-66.25"/>
<polygon fill="#000000" fill-opacity="0.200000" stroke="#000000" stroke-width="2" stroke-opacity="0.200000" points="477.49,-67.94 483.51,-70 480.09,-64.64 477.49,-67.94"/>
</g>
<!-- src/components/HeaderSearch.tsx&#45;&gt;src/store/books/booksAPI.ts -->
<g id="edge19" class="edge">
<title>src/components/HeaderSearch.tsx&#45;&gt;src/store/books/booksAPI.ts</title>
<path fill="none" stroke="#000000" stroke-width="2" stroke-opacity="0.200000" d="M292.04,-210.08C294.8,-211.24 297.49,-212.54 300,-214 307.07,-218.1 305.45,-223.87 313,-227 337.62,-237.2 409.01,-231.26 454.42,-226.08"/>
<polygon fill="#000000" fill-opacity="0.200000" stroke="#000000" stroke-width="2" stroke-opacity="0.200000" points="454.93,-228.14 460.65,-225.36 454.45,-223.97 454.93,-228.14"/>
</g>
<!-- src/components/HeaderSearch.tsx&#45;&gt;src/store/hooks.ts -->
<g id="edge20" class="edge">
<title>src/components/HeaderSearch.tsx&#45;&gt;src/store/hooks.ts</title>
<path fill="none" stroke="#000000" stroke-width="2" stroke-opacity="0.200000" d="M293.31,-210.03C295.66,-211.19 297.91,-212.51 300,-214 308.33,-219.94 304.52,-227.27 313,-233 336.94,-249.17 416.34,-262.34 461.62,-268.76"/>
<polygon fill="#000000" fill-opacity="0.200000" stroke="#000000" stroke-width="2" stroke-opacity="0.200000" points="461.55,-270.87 467.78,-269.62 462.13,-266.71 461.55,-270.87"/>
</g>
<!-- src/components/SearchInput.tsx -->
<g id="node14" class="node">
<title>src/components/SearchInput.tsx</title>
<g id="a_node14"><a xlink:href="src/components/SearchInput.tsx" xlink:title="SearchInput.tsx">
<path fill="#bbfeff" stroke="black" d="M404.5,-180C404.5,-180 327.5,-180 327.5,-180 324.5,-180 321.5,-177 321.5,-174 321.5,-174 321.5,-168 321.5,-168 321.5,-165 324.5,-162 327.5,-162 327.5,-162 404.5,-162 404.5,-162 407.5,-162 410.5,-165 410.5,-168 410.5,-168 410.5,-174 410.5,-174 410.5,-177 407.5,-180 404.5,-180"/>
<text text-anchor="start" x="329.5" y="-168.8" font-family="Helvetica,sans-Serif" font-size="9.00">SearchInput.tsx</text>
</a>
</g>
</g>
<!-- src/components/HeaderSearch.tsx&#45;&gt;src/components/SearchInput.tsx -->
<g id="edge21" class="edge">
<title>src/components/HeaderSearch.tsx&#45;&gt;src/components/SearchInput.tsx</title>
<path fill="none" stroke="#000000" stroke-width="2" stroke-opacity="0.200000" d="M286.25,-192C298.38,-188.77 312.17,-185.09 324.79,-181.72"/>
<polygon fill="#000000" fill-opacity="0.200000" stroke="#000000" stroke-width="2" stroke-opacity="0.200000" points="325.62,-183.67 330.88,-180.1 324.54,-179.62 325.62,-183.67"/>
</g>
<!-- src/components/SelectInput.tsx -->
<g id="node15" class="node">
<title>src/components/SelectInput.tsx</title>
<g id="a_node15"><a xlink:href="src/components/SelectInput.tsx" xlink:title="SelectInput.tsx">
<path fill="#bbfeff" stroke="black" d="M403,-210C403,-210 329,-210 329,-210 326,-210 323,-207 323,-204 323,-204 323,-198 323,-198 323,-195 326,-192 329,-192 329,-192 403,-192 403,-192 406,-192 409,-195 409,-198 409,-198 409,-204 409,-204 409,-207 406,-210 403,-210"/>
<text text-anchor="start" x="331" y="-198.8" font-family="Helvetica,sans-Serif" font-size="9.00">SelectInput.tsx</text>
</a>
</g>
</g>
<!-- src/components/HeaderSearch.tsx&#45;&gt;src/components/SelectInput.tsx -->
<g id="edge22" class="edge">
<title>src/components/HeaderSearch.tsx&#45;&gt;src/components/SelectInput.tsx</title>
<path fill="none" stroke="#000000" stroke-width="2" stroke-opacity="0.200000" d="M300.21,-201C305.63,-201 311.17,-201 316.6,-201"/>
<polygon fill="#000000" fill-opacity="0.200000" stroke="#000000" stroke-width="2" stroke-opacity="0.200000" points="316.92,-203.1 322.92,-201 316.92,-198.9 316.92,-203.1"/>
</g>
<!-- src/store/books/booksAPI.ts&#45;&gt;src/store/books/booksApiSchemas.ts -->
<g id="edge28" class="edge">
<title>src/store/books/booksAPI.ts&#45;&gt;src/store/books/booksApiSchemas.ts</title>
<path fill="none" stroke="#000000" stroke-width="2" stroke-opacity="0.200000" d="M529.15,-212.06C539.87,-209.58 551.86,-207.23 563,-206 595.07,-202.45 631.03,-202.38 660.53,-203.33"/>
<polygon fill="#000000" fill-opacity="0.200000" stroke="#000000" stroke-width="2" stroke-opacity="0.200000" points="660.66,-205.44 666.73,-203.55 660.8,-201.24 660.66,-205.44"/>
</g>
<!-- src/store/store.ts -->
<g id="node19" class="node">
<title>src/store/store.ts</title>
<g id="a_node19"><a xlink:href="src/store/store.ts" xlink:title="store.ts">
<path fill="#ddfeff" stroke="black" d="M629.5,-282C629.5,-282 587.5,-282 587.5,-282 584.5,-282 581.5,-279 581.5,-276 581.5,-276 581.5,-270 581.5,-270 581.5,-267 584.5,-264 587.5,-264 587.5,-264 629.5,-264 629.5,-264 632.5,-264 635.5,-267 635.5,-270 635.5,-270 635.5,-276 635.5,-276 635.5,-279 632.5,-282 629.5,-282"/>
<text text-anchor="start" x="591.5" y="-270.8" font-family="Helvetica,sans-Serif" font-size="9.00">store.ts</text>
</a>
</g>
</g>
<!-- src/store/books/booksAPI.ts&#45;&gt;src/store/store.ts -->
<g id="edge27" class="edge">
<title>src/store/books/booksAPI.ts&#45;&gt;src/store/store.ts</title>
<path fill="none" stroke="#000000" stroke-width="2" stroke-opacity="0.200000" d="M529.14,-222.23C538.45,-224.07 547.94,-227.57 555,-234 563.62,-241.86 554.73,-250.77 563,-259 566.47,-262.45 570.79,-265.06 575.35,-267.02"/>
<polygon fill="#000000" fill-opacity="0.200000" stroke="#000000" stroke-width="2" stroke-opacity="0.200000" points="574.87,-269.08 581.22,-269.18 576.32,-265.14 574.87,-269.08"/>
</g>
<!-- src/store/books/booksReducer.ts -->
<g id="node22" class="node">
<title>src/store/books/booksReducer.ts</title>
<g id="a_node22"><a xlink:href="src/store/books/booksReducer.ts" xlink:title="booksReducer.ts">
<path fill="#ddfeff" stroke="black" d="M648,-230C648,-230 569,-230 569,-230 566,-230 563,-227 563,-224 563,-224 563,-218 563,-218 563,-215 566,-212 569,-212 569,-212 648,-212 648,-212 651,-212 654,-215 654,-218 654,-218 654,-224 654,-224 654,-227 651,-230 648,-230"/>
<text text-anchor="start" x="571" y="-218.8" font-family="Helvetica,sans-Serif" font-size="9.00">booksReducer.ts</text>
</a>
</g>
</g>
<!-- src/store/books/booksAPI.ts&#45;&gt;src/store/books/booksReducer.ts -->
<g id="edge29" class="edge">
<title>src/store/books/booksAPI.ts&#45;&gt;src/store/books/booksReducer.ts</title>
<path fill="none" stroke="#000000" stroke-width="2" stroke-opacity="0.200000" d="M529.15,-221C537.79,-221 547.29,-221 556.62,-221"/>
<polygon fill="#000000" fill-opacity="0.200000" stroke="#000000" stroke-width="2" stroke-opacity="0.200000" points="556.71,-223.1 562.71,-221 556.71,-218.9 556.71,-223.1"/>
</g>
<!-- src/store/hooks.ts&#45;&gt;src/store/store.ts -->
<g id="edge31" class="edge">
<title>src/store/hooks.ts&#45;&gt;src/store/store.ts</title>
<path fill="none" stroke="#000000" stroke-width="2" stroke-opacity="0.200000" d="M522.14,-273C537.96,-273 558.27,-273 575.1,-273"/>
<polygon fill="#000000" fill-opacity="0.200000" stroke="#000000" stroke-width="2" stroke-opacity="0.200000" points="575.14,-275.1 581.14,-273 575.14,-270.9 575.14,-275.1"/>
</g>
<!-- src/components/BookCard.tsx&#45;&gt;src/icons/PictureSkeleton.tsx -->
<g id="edge7" class="edge">
<title>src/components/BookCard.tsx&#45;&gt;src/icons/PictureSkeleton.tsx</title>
<path fill="none" stroke="#000000" stroke-width="2" stroke-opacity="0.200000" d="M404.08,-110.42C414.33,-110.25 425.7,-110.08 436.82,-109.9"/>
<polygon fill="#000000" fill-opacity="0.200000" stroke="#000000" stroke-width="2" stroke-opacity="0.200000" points="436.99,-112 442.95,-109.8 436.92,-107.8 436.99,-112"/>
</g>
<!-- src/components/BookCard.tsx&#45;&gt;src/store/books/booksApiSchemas.ts -->
<g id="edge8" class="edge">
<title>src/components/BookCard.tsx&#45;&gt;src/store/books/booksApiSchemas.ts</title>
<path fill="none" stroke="#000000" stroke-width="2" stroke-opacity="0.200000" d="M404.24,-113.36C412.77,-115.63 421.06,-119.5 427,-126 442.48,-142.93 418.33,-161.23 435,-177 470.53,-210.61 605.38,-193.66 654,-199 656.23,-199.24 658.5,-199.5 660.79,-199.76"/>
<polygon fill="#000000" fill-opacity="0.200000" stroke="#000000" stroke-width="2" stroke-opacity="0.200000" points="660.69,-201.86 666.89,-200.45 661.17,-197.69 660.69,-201.86"/>
</g>
<!-- src/components/GetBooksButton.tsx&#45;&gt;src/store/hooks.ts -->
<g id="edge18" class="edge">
<title>src/components/GetBooksButton.tsx&#45;&gt;src/store/hooks.ts</title>
<path fill="none" stroke="#000000" stroke-width="2" stroke-opacity="0.200000" d="M419.06,-149.16C422.02,-151.04 424.71,-153.29 427,-156 441.82,-173.53 420.08,-241.55 435,-259 441.63,-266.75 451.69,-270.64 461.64,-272.48"/>
<polygon fill="#000000" fill-opacity="0.200000" stroke="#000000" stroke-width="2" stroke-opacity="0.200000" points="461.55,-274.59 467.79,-273.38 462.15,-270.43 461.55,-274.59"/>
</g>
<!-- src/icons/SearchIcon.tsx -->
<g id="node16" class="node">
<title>src/icons/SearchIcon.tsx</title>
<g id="a_node16"><a xlink:href="src/icons/SearchIcon.tsx" xlink:title="SearchIcon.tsx">
<path fill="#bbfeff" stroke="black" d="M531,-148C531,-148 459,-148 459,-148 456,-148 453,-145 453,-142 453,-142 453,-136 453,-136 453,-133 456,-130 459,-130 459,-130 531,-130 531,-130 534,-130 537,-133 537,-136 537,-136 537,-142 537,-142 537,-145 534,-148 531,-148"/>
<text text-anchor="start" x="461" y="-136.8" font-family="Helvetica,sans-Serif" font-size="9.00">SearchIcon.tsx</text>
</a>
</g>
</g>
<!-- src/components/SearchInput.tsx&#45;&gt;src/icons/SearchIcon.tsx -->
<g id="edge23" class="edge">
<title>src/components/SearchInput.tsx&#45;&gt;src/icons/SearchIcon.tsx</title>
<path fill="none" stroke="#000000" stroke-width="2" stroke-opacity="0.200000" d="M403.18,-161.98C411.03,-160.01 419.3,-157.94 427,-156 435.16,-153.94 443.88,-151.74 452.23,-149.62"/>
<polygon fill="#000000" fill-opacity="0.200000" stroke="#000000" stroke-width="2" stroke-opacity="0.200000" points="453.24,-151.53 458.54,-148.02 452.21,-147.46 453.24,-151.53"/>
</g>
<!-- src/index.css -->
<g id="node17" class="node">
<title>src/index.css</title>
<g id="a_node17"><a xlink:href="src/index.css" xlink:title="index.css">
<path fill="#ffffcc" stroke="black" d="M181,-291C181,-291 134,-291 134,-291 131,-291 128,-288 128,-285 128,-285 128,-279 128,-279 128,-276 131,-273 134,-273 134,-273 181,-273 181,-273 184,-273 187,-276 187,-279 187,-279 187,-285 187,-285 187,-288 184,-291 181,-291"/>
<text text-anchor="start" x="136" y="-279.8" font-family="Helvetica,sans-Serif" font-size="9.00">index.css</text>
</a>
</g>
</g>
<!-- src/index.tsx -->
<g id="node18" class="node">
<title>src/index.tsx</title>
<g id="a_node18"><a xlink:href="src/index.tsx" xlink:title="index.tsx">
<path fill="#bbfeff" stroke="black" d="M88.5,-291C88.5,-291 42.5,-291 42.5,-291 39.5,-291 36.5,-288 36.5,-285 36.5,-285 36.5,-279 36.5,-279 36.5,-276 39.5,-273 42.5,-273 42.5,-273 88.5,-273 88.5,-273 91.5,-273 94.5,-276 94.5,-279 94.5,-279 94.5,-285 94.5,-285 94.5,-288 91.5,-291 88.5,-291"/>
<text text-anchor="start" x="44.5" y="-279.8" font-family="Helvetica,sans-Serif" font-size="9.00">index.tsx</text>
</a>
</g>
</g>
<!-- src/index.tsx&#45;&gt;src/App.tsx -->
<g id="edge24" class="edge">
<title>src/index.tsx&#45;&gt;src/App.tsx</title>
<path fill="none" stroke="#000000" stroke-width="2" stroke-opacity="0.200000" d="M91.09,-272.98C101.91,-269.02 114.72,-264.32 126.12,-260.14"/>
<polygon fill="#000000" fill-opacity="0.200000" stroke="#000000" stroke-width="2" stroke-opacity="0.200000" points="127.03,-262.04 131.94,-258.01 125.58,-258.1 127.03,-262.04"/>
</g>
<!-- src/index.tsx&#45;&gt;src/index.css -->
<g id="edge25" class="edge">
<title>src/index.tsx&#45;&gt;src/index.css</title>
<path fill="none" stroke="#000000" stroke-width="2" stroke-opacity="0.200000" d="M94.98,-282C103.51,-282 112.97,-282 121.86,-282"/>
<polygon fill="#000000" fill-opacity="0.200000" stroke="#000000" stroke-width="2" stroke-opacity="0.200000" points="121.9,-284.1 127.9,-282 121.9,-279.9 121.9,-284.1"/>
</g>
<!-- src/index.tsx&#45;&gt;src/store/store.ts -->
<g id="edge26" class="edge">
<title>src/index.tsx&#45;&gt;src/store/store.ts</title>
<path fill="none" stroke="#000000" stroke-width="2" stroke-opacity="0.200000" d="M94.78,-289.89C105.16,-292.52 117.04,-295.23 128,-297 181.92,-305.72 195.87,-307 250.5,-307 250.5,-307 250.5,-307 367,-307 450.98,-307 472.52,-303.82 555,-288 561.63,-286.73 568.63,-285 575.29,-283.18"/>
<polygon fill="#000000" fill-opacity="0.200000" stroke="#000000" stroke-width="2" stroke-opacity="0.200000" points="576.08,-285.13 581.28,-281.48 574.94,-281.09 576.08,-285.13"/>
</g>
<!-- src/store/store.ts&#45;&gt;src/store/books/booksReducer.ts -->
<g id="edge32" class="edge">
<title>src/store/store.ts&#45;&gt;src/store/books/booksReducer.ts</title>
<path fill="none" stroke="#000000" stroke-width="2" stroke-opacity="0.200000" d="M608.5,-263.67C608.5,-254.64 608.5,-245.62 608.5,-236.59"/>
<polygon fill="#000000" fill-opacity="0.200000" stroke="#000000" stroke-width="2" stroke-opacity="0.200000" points="610.6,-236.34 608.5,-230.34 606.4,-236.34 610.6,-236.34"/>
</g>
<!-- src/react&#45;app&#45;env.d.ts -->
<g id="node20" class="node">
<title>src/react&#45;app&#45;env.d.ts</title>
<g id="a_node20"><a xlink:href="src/react-app-env.d.ts" xlink:title="react&#45;app&#45;env.d.ts">
<path fill="#ccffcc" stroke="black" d="M109,-211C109,-211 22,-211 22,-211 19,-211 16,-208 16,-205 16,-205 16,-199 16,-199 16,-196 19,-193 22,-193 22,-193 109,-193 109,-193 112,-193 115,-196 115,-199 115,-199 115,-205 115,-205 115,-208 112,-211 109,-211"/>
<text text-anchor="start" x="24" y="-199.8" font-family="Helvetica,sans-Serif" font-size="9.00">react&#45;app&#45;env.d.ts</text>
</a>
</g>
</g>
<!-- src/setupTests.ts -->
<g id="node21" class="node">
<title>src/setupTests.ts</title>
<g id="a_node21"><a xlink:href="src/setupTests.ts" xlink:title="setupTests.ts">
<path fill="#ccffcc" stroke="black" d="M97,-81C97,-81 34,-81 34,-81 31,-81 28,-78 28,-75 28,-75 28,-69 28,-69 28,-66 31,-63 34,-63 34,-63 97,-63 97,-63 100,-63 103,-66 103,-69 103,-69 103,-75 103,-75 103,-78 100,-81 97,-81"/>
<text text-anchor="start" x="36" y="-69.8" font-family="Helvetica,sans-Serif" font-size="9.00">setupTests.ts</text>
</a>
</g>
</g>
<!-- src/store/books/booksReducer.ts&#45;&gt;src/store/books/booksApiSchemas.ts -->
<g id="edge30" class="edge">
<title>src/store/books/booksReducer.ts&#45;&gt;src/store/books/booksApiSchemas.ts</title>
<path fill="none" stroke="#000000" stroke-width="2" stroke-opacity="0.200000" d="M654.21,-215.39C656.27,-215.13 658.35,-214.87 660.44,-214.6"/>
<polygon fill="#000000" fill-opacity="0.200000" stroke="#000000" stroke-width="2" stroke-opacity="0.200000" points="661.03,-216.65 666.72,-213.81 660.51,-212.48 661.03,-216.65"/>
</g>
</g>
</svg>
